<mxfile host="app.diagrams.net" modified="2023-10-06T03:57:15.439Z" agent="Mozilla/5.0 (Windows NT 10.0; Win64; x64) AppleWebKit/537.36 (KHTML, like Gecko) Chrome/117.0.0.0 Safari/537.36" etag="M1uw6aIQTZN0Vxva-lat" version="22.0.0" type="device">
  <diagram name="Page-1" id="IBewkDdHocoUVoDfr7nL">
    <mxGraphModel dx="1150" dy="470" grid="0" gridSize="10" guides="1" tooltips="1" connect="1" arrows="1" fold="1" page="1" pageScale="1" pageWidth="850" pageHeight="1100" math="0" shadow="0">
      <root>
        <mxCell id="0" />
        <mxCell id="1" parent="0" />
        <mxCell id="XC9Y2dB1WCvw_uz3RHQ8-1" value="&lt;b&gt;Actor&lt;/b&gt;" style="shape=umlActor;verticalLabelPosition=bottom;verticalAlign=top;html=1;outlineConnect=0;" parent="1" vertex="1">
          <mxGeometry x="90" y="260" width="50" height="90" as="geometry" />
        </mxCell>
        <mxCell id="XC9Y2dB1WCvw_uz3RHQ8-2" value="Sign In / Sign Up" style="ellipse;whiteSpace=wrap;html=1;" parent="1" vertex="1">
          <mxGeometry x="300" y="80" width="110" height="60" as="geometry" />
        </mxCell>
        <mxCell id="XC9Y2dB1WCvw_uz3RHQ8-3" value="Image upload" style="ellipse;whiteSpace=wrap;html=1;" parent="1" vertex="1">
          <mxGeometry x="300" y="150" width="110" height="60" as="geometry" />
        </mxCell>
        <mxCell id="XC9Y2dB1WCvw_uz3RHQ8-5" value="Accent select" style="ellipse;whiteSpace=wrap;html=1;" parent="1" vertex="1">
          <mxGeometry x="300" y="360" width="110" height="60" as="geometry" />
        </mxCell>
        <mxCell id="XC9Y2dB1WCvw_uz3RHQ8-6" value="Topic / Query write" style="ellipse;whiteSpace=wrap;html=1;" parent="1" vertex="1">
          <mxGeometry x="300" y="220" width="110" height="60" as="geometry" />
        </mxCell>
        <mxCell id="XC9Y2dB1WCvw_uz3RHQ8-7" value="Language select" style="ellipse;whiteSpace=wrap;html=1;" parent="1" vertex="1">
          <mxGeometry x="300" y="290" width="110" height="60" as="geometry" />
        </mxCell>
        <mxCell id="XC9Y2dB1WCvw_uz3RHQ8-10" value="&lt;b&gt;Website&lt;/b&gt;" style="shape=umlActor;verticalLabelPosition=bottom;verticalAlign=top;html=1;outlineConnect=0;" parent="1" vertex="1">
          <mxGeometry x="610" y="265" width="50" height="80" as="geometry" />
        </mxCell>
        <mxCell id="XC9Y2dB1WCvw_uz3RHQ8-17" value="Recommendation" style="ellipse;whiteSpace=wrap;html=1;" parent="1" vertex="1">
          <mxGeometry x="298" y="430" width="110" height="60" as="geometry" />
        </mxCell>
        <mxCell id="XC9Y2dB1WCvw_uz3RHQ8-18" value="History" style="ellipse;whiteSpace=wrap;html=1;" parent="1" vertex="1">
          <mxGeometry x="300" y="500" width="110" height="60" as="geometry" />
        </mxCell>
        <mxCell id="XC9Y2dB1WCvw_uz3RHQ8-33" value="" style="endArrow=none;html=1;rounded=0;" parent="1" source="XC9Y2dB1WCvw_uz3RHQ8-1" target="XC9Y2dB1WCvw_uz3RHQ8-2" edge="1">
          <mxGeometry width="50" height="50" relative="1" as="geometry">
            <mxPoint x="180" y="210" as="sourcePoint" />
            <mxPoint x="230" y="160" as="targetPoint" />
          </mxGeometry>
        </mxCell>
        <mxCell id="XC9Y2dB1WCvw_uz3RHQ8-34" value="" style="endArrow=none;html=1;rounded=0;" parent="1" source="XC9Y2dB1WCvw_uz3RHQ8-1" target="XC9Y2dB1WCvw_uz3RHQ8-5" edge="1">
          <mxGeometry width="50" height="50" relative="1" as="geometry">
            <mxPoint x="180" y="277" as="sourcePoint" />
            <mxPoint x="320" y="120" as="targetPoint" />
          </mxGeometry>
        </mxCell>
        <mxCell id="XC9Y2dB1WCvw_uz3RHQ8-35" value="" style="endArrow=none;html=1;rounded=0;" parent="1" source="XC9Y2dB1WCvw_uz3RHQ8-1" target="XC9Y2dB1WCvw_uz3RHQ8-17" edge="1">
          <mxGeometry width="50" height="50" relative="1" as="geometry">
            <mxPoint x="190" y="287" as="sourcePoint" />
            <mxPoint x="330" y="130" as="targetPoint" />
          </mxGeometry>
        </mxCell>
        <mxCell id="XC9Y2dB1WCvw_uz3RHQ8-36" value="" style="endArrow=none;html=1;rounded=0;" parent="1" source="XC9Y2dB1WCvw_uz3RHQ8-1" target="XC9Y2dB1WCvw_uz3RHQ8-18" edge="1">
          <mxGeometry width="50" height="50" relative="1" as="geometry">
            <mxPoint x="200" y="297" as="sourcePoint" />
            <mxPoint x="340" y="140" as="targetPoint" />
          </mxGeometry>
        </mxCell>
        <mxCell id="XC9Y2dB1WCvw_uz3RHQ8-37" value="" style="endArrow=none;html=1;rounded=0;" parent="1" source="XC9Y2dB1WCvw_uz3RHQ8-10" target="XC9Y2dB1WCvw_uz3RHQ8-18" edge="1">
          <mxGeometry width="50" height="50" relative="1" as="geometry">
            <mxPoint x="210" y="307" as="sourcePoint" />
            <mxPoint x="350" y="150" as="targetPoint" />
          </mxGeometry>
        </mxCell>
        <mxCell id="XC9Y2dB1WCvw_uz3RHQ8-38" value="" style="endArrow=none;html=1;rounded=0;" parent="1" source="XC9Y2dB1WCvw_uz3RHQ8-10" target="XC9Y2dB1WCvw_uz3RHQ8-17" edge="1">
          <mxGeometry width="50" height="50" relative="1" as="geometry">
            <mxPoint x="220" y="317" as="sourcePoint" />
            <mxPoint x="360" y="160" as="targetPoint" />
          </mxGeometry>
        </mxCell>
        <mxCell id="XC9Y2dB1WCvw_uz3RHQ8-39" value="" style="endArrow=none;html=1;rounded=0;" parent="1" source="XC9Y2dB1WCvw_uz3RHQ8-10" target="XC9Y2dB1WCvw_uz3RHQ8-5" edge="1">
          <mxGeometry width="50" height="50" relative="1" as="geometry">
            <mxPoint x="230" y="327" as="sourcePoint" />
            <mxPoint x="370" y="170" as="targetPoint" />
          </mxGeometry>
        </mxCell>
        <mxCell id="XC9Y2dB1WCvw_uz3RHQ8-40" value="" style="endArrow=none;html=1;rounded=0;" parent="1" source="XC9Y2dB1WCvw_uz3RHQ8-10" target="XC9Y2dB1WCvw_uz3RHQ8-7" edge="1">
          <mxGeometry width="50" height="50" relative="1" as="geometry">
            <mxPoint x="240" y="330" as="sourcePoint" />
            <mxPoint x="380" y="180" as="targetPoint" />
          </mxGeometry>
        </mxCell>
        <mxCell id="XC9Y2dB1WCvw_uz3RHQ8-41" value="" style="endArrow=none;html=1;rounded=0;" parent="1" source="XC9Y2dB1WCvw_uz3RHQ8-10" target="XC9Y2dB1WCvw_uz3RHQ8-6" edge="1">
          <mxGeometry width="50" height="50" relative="1" as="geometry">
            <mxPoint x="250" y="347" as="sourcePoint" />
            <mxPoint x="390" y="190" as="targetPoint" />
          </mxGeometry>
        </mxCell>
        <mxCell id="XC9Y2dB1WCvw_uz3RHQ8-42" value="" style="endArrow=none;html=1;rounded=0;" parent="1" source="XC9Y2dB1WCvw_uz3RHQ8-10" target="XC9Y2dB1WCvw_uz3RHQ8-3" edge="1">
          <mxGeometry width="50" height="50" relative="1" as="geometry">
            <mxPoint x="260" y="357" as="sourcePoint" />
            <mxPoint x="400" y="200" as="targetPoint" />
          </mxGeometry>
        </mxCell>
        <mxCell id="XC9Y2dB1WCvw_uz3RHQ8-43" value="" style="endArrow=none;html=1;rounded=0;" parent="1" source="XC9Y2dB1WCvw_uz3RHQ8-10" target="XC9Y2dB1WCvw_uz3RHQ8-2" edge="1">
          <mxGeometry width="50" height="50" relative="1" as="geometry">
            <mxPoint x="270" y="367" as="sourcePoint" />
            <mxPoint x="410" y="210" as="targetPoint" />
          </mxGeometry>
        </mxCell>
        <mxCell id="XC9Y2dB1WCvw_uz3RHQ8-44" value="" style="endArrow=none;html=1;rounded=0;" parent="1" source="XC9Y2dB1WCvw_uz3RHQ8-1" target="XC9Y2dB1WCvw_uz3RHQ8-7" edge="1">
          <mxGeometry width="50" height="50" relative="1" as="geometry">
            <mxPoint x="180" y="316" as="sourcePoint" />
            <mxPoint x="323" y="381" as="targetPoint" />
          </mxGeometry>
        </mxCell>
        <mxCell id="XC9Y2dB1WCvw_uz3RHQ8-45" value="" style="endArrow=none;html=1;rounded=0;" parent="1" source="XC9Y2dB1WCvw_uz3RHQ8-1" target="XC9Y2dB1WCvw_uz3RHQ8-6" edge="1">
          <mxGeometry width="50" height="50" relative="1" as="geometry">
            <mxPoint x="190" y="326" as="sourcePoint" />
            <mxPoint x="333" y="391" as="targetPoint" />
          </mxGeometry>
        </mxCell>
        <mxCell id="XC9Y2dB1WCvw_uz3RHQ8-46" value="" style="endArrow=none;html=1;rounded=0;" parent="1" source="XC9Y2dB1WCvw_uz3RHQ8-1" target="XC9Y2dB1WCvw_uz3RHQ8-3" edge="1">
          <mxGeometry width="50" height="50" relative="1" as="geometry">
            <mxPoint x="200" y="336" as="sourcePoint" />
            <mxPoint x="343" y="401" as="targetPoint" />
          </mxGeometry>
        </mxCell>
        <mxCell id="XC9Y2dB1WCvw_uz3RHQ8-47" value="&lt;b&gt;Admin&lt;/b&gt;" style="shape=umlActor;verticalLabelPosition=bottom;verticalAlign=top;html=1;outlineConnect=0;" parent="1" vertex="1">
          <mxGeometry x="120" y="485" width="50" height="90" as="geometry" />
        </mxCell>
        <mxCell id="XC9Y2dB1WCvw_uz3RHQ8-50" value="" style="endArrow=none;html=1;rounded=0;" parent="1" source="XC9Y2dB1WCvw_uz3RHQ8-47" target="XC9Y2dB1WCvw_uz3RHQ8-18" edge="1">
          <mxGeometry width="50" height="50" relative="1" as="geometry">
            <mxPoint x="180" y="333" as="sourcePoint" />
            <mxPoint x="341" y="513" as="targetPoint" />
          </mxGeometry>
        </mxCell>
      </root>
    </mxGraphModel>
  </diagram>
</mxfile>
